<svg width="300" height="474" viewBox="0 0 300 474" fill="none" xmlns="http://www.w3.org/2000/svg">
<g clip-path="url(#clip0_22_29)">
<path d="M149.738 472.376V354.086L2.89014 268.77L149.738 472.376Z" fill="#F0CDC2"/>
<path d="M149.738 473.684C149.212 473.684 148.949 473.422 148.687 473.161L1.83911 269.555C1.57642 269.032 1.57642 268.247 1.83911 267.985C2.36451 267.461 2.8899 267.461 3.41529 267.723L150.263 353.3C150.788 353.562 150.788 354.085 150.788 354.347V472.637C150.788 473.161 150.526 473.684 150 473.946C150 473.684 150 473.684 149.738 473.684ZM7.61845 272.957L148.424 468.45V355.132L7.61845 272.957Z" fill="#1616B4"/>
<path d="M150.263 472.376V354.086L297.11 268.508L150.263 472.376Z" fill="#C9B3F5"/>
<path d="M150.263 473.684C150 473.684 150 473.684 149.737 473.684C149.212 473.422 148.949 472.899 148.949 472.376V354.085C148.949 353.562 149.212 353.3 149.475 353.039L296.322 267.461C296.848 267.2 297.636 267.2 297.898 267.723C298.424 268.247 298.424 268.77 297.898 269.293L151.051 472.899C151.051 473.422 150.525 473.684 150.263 473.684ZM151.576 354.871V468.188L292.382 272.696L151.576 354.871Z" fill="#1616B4"/>
<path d="M149.737 324.775V174.033L1.31348 240.244L149.737 324.775Z" fill="#88AAF1"/>
<path d="M149.737 326.083C149.475 326.083 149.212 326.083 149.212 325.821L0.788091 241.291C0.262697 241.029 0 240.506 0 240.244C0 239.721 0.262697 239.197 0.788091 239.197L149.212 172.725C149.737 172.463 150 172.463 150.525 172.725C150.788 172.986 151.051 173.248 151.051 173.771V324.513C151.051 325.036 150.788 325.298 150.525 325.56C150.263 326.083 150 326.083 149.737 326.083ZM4.20315 240.244L148.424 322.419V175.865L4.20315 240.244Z" fill="#1616B4"/>
<path d="M150.263 324.775V174.033L298.687 240.244L150.263 324.775Z" fill="#C9B3F5"/>
<path d="M150.263 326.083C150 326.083 149.737 326.083 149.475 325.821C148.949 325.56 148.949 325.036 148.949 324.775V174.033C148.949 173.51 149.212 173.248 149.475 172.986C149.737 172.725 150.263 172.725 150.788 172.986L299.212 239.197C299.737 239.459 300 239.721 300 240.244C300 240.768 299.737 241.291 299.212 241.553L150.788 326.083C150.788 326.083 150.525 326.083 150.263 326.083ZM151.576 176.127V322.681L295.797 240.506L151.576 176.127Z" fill="#1616B4"/>
<path d="M1.31348 240.244L149.737 1.30853V174.033L1.31348 240.244Z" fill="#F0CDC2"/>
<path d="M1.3136 241.553C1.0509 241.553 0.525506 241.291 0.262809 241.029C0.000112038 240.506 -0.262585 239.983 0.262809 239.459L148.687 0.523408C148.949 0 149.475 0 150 0C150.526 0.261704 151.051 0.785112 151.051 1.30852V174.033C151.051 174.557 150.788 175.08 150.263 175.342L1.83899 241.291C1.57629 241.553 1.57629 241.553 1.3136 241.553ZM148.424 6.01919L4.72866 237.365L148.424 173.248V6.01919Z" fill="#1616B4"/>
<path d="M298.687 240.244L150.263 1.30853V174.033L298.687 240.244Z" fill="#B8FAF6"/>
<path d="M298.687 241.553C298.424 241.553 298.424 241.553 298.161 241.553L149.737 175.08C149.212 174.818 148.949 174.295 148.949 173.771V1.04681C148.949 0.5234 149.212 -8.1762e-06 150 -0.261712C150.525 -0.523416 151.051 -0.261712 151.576 0.261696L300 239.197C300.263 239.721 300.263 240.244 300 240.768C299.475 241.291 298.949 241.553 298.687 241.553ZM151.576 173.248L295.271 237.365L151.576 6.01918V173.248Z" fill="#1616B4"/>
</g>
<defs>
<clipPath id="clip0_22_29">
<rect width="300" height="473.684" fill="white"/>
</clipPath>
</defs>
</svg>
