<svg width="1000" height="599" viewBox="0 0 1000 599" fill="none" xmlns="http://www.w3.org/2000/svg">
<rect width="1000" height="599" fill="#F3D55F"/>
<path d="M903.988 370.829C903.988 378.833 904.037 386.429 903.936 394.024C903.92 395.189 903.21 396.344 902.821 397.504C902.317 397.385 901.814 397.265 901.31 397.145C901.31 391.531 901.31 385.917 901.31 379.903C878.609 379.903 856.312 379.903 833.787 379.903C833.787 352.156 833.787 324.816 833.787 297.179C856.996 297.179 880.228 297.179 903.988 297.179C903.988 321.664 903.988 346.043 903.988 370.829Z" fill="#F2F2F2"/>
<path d="M577.963 355.754C590.01 355.754 601.655 355.754 613.527 355.754C613.527 349.93 613.527 344.41 613.527 338.404C598.411 338.404 583.181 338.404 567.724 338.404C567.724 330.248 567.724 322.574 567.724 314.41C590.039 314.41 612.345 314.41 635.211 314.41C635.211 308.34 635.211 302.732 635.211 297C637.229 297 638.683 297 640.623 297C640.623 298.608 640.623 300.057 640.623 301.506C640.623 319.681 640.633 337.855 640.62 356.03C640.61 370.302 645.544 382.248 657.369 390.722C660.811 393.189 664.771 394.936 668.635 397.091C635.116 397.091 601.608 397.091 567.794 397.091C567.794 383.443 567.794 369.859 567.794 355.754C571.12 355.754 574.341 355.754 577.963 355.754Z" fill="#F2F2F2"/>
<path d="M149.738 397.303C134.311 397.303 119.291 397.303 104 397.303C104 363.759 104 330.61 104 297.17C132.125 297.17 160.227 297.17 188.573 297.17C188.573 302.725 188.573 308.224 188.573 314.142C166.284 314.142 143.972 314.142 121.389 314.142C121.389 322.327 121.389 330.1 121.389 338.26C136.619 338.26 151.736 338.26 167.052 338.26C167.052 344.15 167.052 349.659 167.052 355.644C151.836 355.644 136.73 355.644 121.372 355.644C121.372 363.792 121.372 371.474 121.372 379.663C143.651 379.663 166.053 379.663 188.633 379.663C188.633 385.68 188.633 391.193 188.633 397.303C175.79 397.303 162.967 397.303 149.738 397.303Z" fill="#F2F2F2"/>
<path d="M370.351 343.965C370.351 361.964 370.351 379.556 370.351 397.198C364.446 397.198 358.958 397.198 353.117 397.198C353.117 383.353 353.117 369.838 353.117 356.055C336.308 356.055 319.857 356.055 303.001 356.055C303.001 369.789 303.001 383.297 303.001 397.049C297.103 397.049 291.608 397.049 285.899 397.049C285.899 363.754 285.899 330.589 285.899 297.153C291.425 297.153 296.903 297.153 302.781 297.153C302.781 310.707 302.781 324.196 302.781 337.974C319.638 337.974 336.103 337.974 352.955 337.974C352.955 324.521 352.955 311.018 352.955 297.155C358.803 297.155 364.281 297.155 370.351 297.155C370.351 312.494 370.351 328.026 370.351 343.965Z" fill="#F2F2F2"/>
<path d="M455.147 383.147C455.752 379.491 453.585 379.767 451.467 379.77C431.807 379.795 412.147 379.785 392.488 379.785C391.005 379.785 389.522 379.785 387.743 379.785C387.743 371.85 387.743 364.063 387.743 355.754C389.53 355.754 391.387 355.754 393.244 355.754C405.583 355.754 417.921 355.696 430.259 355.799C432.857 355.82 433.891 355.097 433.767 352.355C433.565 347.898 433.713 343.424 433.713 338.47C418.341 338.47 403.124 338.47 387.678 338.47C387.678 330.205 387.678 322.428 387.678 314.219C410.117 314.219 432.42 314.219 455.164 314.219C455.164 308.311 455.164 302.82 455.164 297.114C457.16 297.114 458.711 297.114 460.489 297.114C460.489 330.388 460.489 363.558 460.489 397.065C458.86 397.065 457.194 397.065 455.147 397.065C455.147 392.424 455.147 387.983 455.147 383.147Z" fill="#F2F2F2"/>
<path d="M744.453 314.302C766.646 314.257 788.467 314.257 810.731 314.257C810.731 308.539 810.731 303.043 810.731 297.221C812.696 297.221 814.226 297.221 816.046 297.221C816.046 330.347 816.046 363.495 816.046 397.062C814.548 397.146 812.999 397.233 810.989 397.346C810.989 391.428 810.989 385.814 810.989 379.851C788.247 379.851 765.945 379.851 743.419 379.851C743.419 371.713 743.419 363.936 743.419 355.719C758.697 355.719 773.824 355.719 789.201 355.719C789.201 349.795 789.201 344.306 789.201 338.472C774.049 338.472 758.927 338.472 742.801 338.472C743.241 330.186 743.662 322.266 744.453 314.302Z" fill="#F2F2F2"/>
<path d="M703.176 301.784C703.176 320.481 703.271 338.791 703.146 357.099C703.045 371.875 692.263 382.183 678.443 381.007C667.141 380.046 658.158 370.948 657.955 359.077C657.609 338.875 657.87 318.663 657.894 298.456C657.894 298.083 658.118 297.71 658.307 297.12C673.037 297.12 687.762 297.12 702.977 297.12C703.044 298.54 703.11 299.968 703.176 301.784Z" fill="#F2F2F2"/>
<path d="M277.416 304.902C277.416 308.111 277.416 310.926 277.416 314.299C265.989 314.299 254.946 314.299 243.501 314.299C243.501 342.197 243.501 369.536 243.501 397.082C237.58 397.082 232.079 397.082 226.256 397.082C226.256 369.504 226.256 342.147 226.256 314.414C215.017 314.414 204.091 314.414 192.814 314.414C192.814 308.455 192.814 302.865 192.814 297.102C220.899 297.102 248.906 297.102 277.416 297.102C277.416 299.707 277.416 302.107 277.416 304.902Z" fill="#F2F2F2"/>
<path d="M518.867 351.739C514.834 353.15 511.08 355.229 507.226 355.435C497.661 355.947 488.049 355.603 478.199 355.603C478.199 341.967 478.199 328.486 478.199 314.728C478.991 314.577 479.871 314.265 480.753 314.262C489.154 314.224 497.56 314.058 505.955 314.279C521.306 314.683 531.159 327.688 526.292 341.573C524.991 345.284 521.556 348.248 518.867 351.739Z" fill="#F2F2F2"/>
<path d="M538.953 314.634C532.681 304.882 523.737 299.626 511.708 297.09C525.304 297.09 537.665 297.09 550.196 297.09C550.196 330.518 550.196 363.689 550.196 396.819C543.037 398.251 542.528 398.076 538.914 392.241C534.146 384.545 529.439 376.811 524.556 368.849C535.299 362.338 542.379 353.314 544.385 340.933C545.887 331.666 544.214 322.889 538.953 314.634Z" fill="#F2F2F2"/>
<path d="M477.928 392.643C477.928 386.035 477.928 379.812 477.928 373.126C487.336 373.126 496.514 373.07 505.688 373.213C506.622 373.227 507.852 374.242 508.412 375.129C512.876 382.204 517.211 389.36 521.866 396.947C507.106 396.947 492.754 396.947 478.114 396.947C478.052 395.648 477.99 394.338 477.928 392.643Z" fill="#F2F2F2"/>
<path d="M722.833 397.075C713.354 397.139 703.876 397.204 694.039 397.041C693.625 396.61 693.589 396.403 693.576 396.193C710.714 389.498 720.352 375.549 720.387 357.261C720.423 338.327 720.363 319.392 720.471 300.459C720.478 299.277 721.58 298.102 722.514 297.248C722.86 297.873 722.863 298.173 722.884 298.845C722.89 331.467 722.878 363.717 722.863 396.152C722.857 396.583 722.848 396.829 722.833 397.075Z" fill="#F2F2F2"/>
<path d="M722.867 298.474C722.863 298.173 722.86 297.873 722.849 297.348C726.657 296.084 725.954 298.842 725.955 300.894C725.971 331.347 725.966 361.8 725.966 392.252C725.966 393.2 726.284 394.324 725.882 395.05C725.368 395.978 724.274 396.584 723.131 397.202C722.848 396.829 722.857 396.583 723.052 395.889C723.358 394.643 723.571 393.845 723.571 393.047C723.589 362.687 723.595 332.327 723.558 301.967C723.556 300.802 723.107 299.638 722.867 298.474Z" fill="#F2F2F2"/>
<path d="M693.355 396.175C693.589 396.403 693.625 396.61 693.673 396.97C693.077 397.271 692.488 397.414 691.002 397.776C692.173 396.887 692.654 396.522 693.355 396.175Z" fill="#F2F2F2"/>
<path d="M722.884 298.845C723.107 299.638 723.556 300.802 723.558 301.967C723.595 332.327 723.589 362.687 723.571 393.047C723.571 393.845 723.358 394.643 723.055 395.704C722.878 363.717 722.89 331.467 722.884 298.845Z" fill="#F2F2F2"/>
<path d="M906.988 366.829C906.988 374.833 907.037 382.429 906.936 390.024C906.92 391.189 906.21 392.344 905.821 393.504C905.317 393.385 904.814 393.265 904.31 393.145C904.31 387.531 904.31 381.917 904.31 375.903C881.609 375.903 859.312 375.903 836.787 375.903C836.787 348.156 836.787 320.816 836.787 293.179C859.996 293.179 883.228 293.179 906.988 293.179C906.988 317.664 906.988 342.043 906.988 366.829Z" fill="#1DA868"/>
<path d="M580.963 351.754C593.01 351.754 604.655 351.754 616.527 351.754C616.527 345.93 616.527 340.41 616.527 334.404C601.411 334.404 586.181 334.404 570.724 334.404C570.724 326.248 570.724 318.574 570.724 310.41C593.039 310.41 615.345 310.41 638.211 310.41C638.211 304.34 638.211 298.732 638.211 293C640.229 293 641.683 293 643.623 293C643.623 294.608 643.623 296.057 643.623 297.506C643.623 315.681 643.633 333.855 643.62 352.03C643.61 366.302 648.544 378.248 660.369 386.722C663.811 389.189 667.771 390.936 671.635 393.091C638.116 393.091 604.608 393.091 570.794 393.091C570.794 379.443 570.794 365.859 570.794 351.754C574.12 351.754 577.341 351.754 580.963 351.754Z" fill="#89B439"/>
<path d="M152.738 393.303C137.311 393.303 122.291 393.303 107 393.303C107 359.759 107 326.61 107 293.17C135.125 293.17 163.227 293.17 191.573 293.17C191.573 298.725 191.573 304.224 191.573 310.142C169.284 310.142 146.972 310.142 124.389 310.142C124.389 318.327 124.389 326.1 124.389 334.26C139.619 334.26 154.736 334.26 170.052 334.26C170.052 340.15 170.052 345.659 170.052 351.644C154.836 351.644 139.73 351.644 124.372 351.644C124.372 359.792 124.372 367.474 124.372 375.663C146.651 375.663 169.053 375.663 191.633 375.663C191.633 381.68 191.633 387.193 191.633 393.303C178.79 393.303 165.967 393.303 152.738 393.303Z" fill="#1EA969"/>
<path d="M373.351 339.965C373.351 357.964 373.351 375.556 373.351 393.198C367.446 393.198 361.958 393.198 356.117 393.198C356.117 379.353 356.117 365.838 356.117 352.055C339.308 352.055 322.857 352.055 306.001 352.055C306.001 365.789 306.001 379.297 306.001 393.049C300.103 393.049 294.608 393.049 288.899 393.049C288.899 359.754 288.899 326.589 288.899 293.153C294.425 293.153 299.903 293.153 305.781 293.153C305.781 306.707 305.781 320.196 305.781 333.974C322.638 333.974 339.103 333.974 355.955 333.974C355.955 320.521 355.955 307.018 355.955 293.155C361.803 293.155 367.281 293.155 373.351 293.155C373.351 308.494 373.351 324.026 373.351 339.965Z" fill="#1EA969"/>
<path d="M458.147 379.147C458.752 375.491 456.585 375.767 454.467 375.77C434.807 375.795 415.147 375.785 395.488 375.785C394.005 375.785 392.522 375.785 390.743 375.785C390.743 367.85 390.743 360.063 390.743 351.754C392.53 351.754 394.387 351.754 396.244 351.754C408.583 351.754 420.921 351.696 433.259 351.799C435.857 351.82 436.891 351.097 436.767 348.355C436.565 343.898 436.713 339.424 436.713 334.47C421.341 334.47 406.124 334.47 390.678 334.47C390.678 326.205 390.678 318.428 390.678 310.219C413.117 310.219 435.42 310.219 458.164 310.219C458.164 304.311 458.164 298.82 458.164 293.114C460.16 293.114 461.711 293.114 463.489 293.114C463.489 326.388 463.489 359.558 463.489 393.065C461.86 393.065 460.194 393.065 458.147 393.065C458.147 388.424 458.147 383.983 458.147 379.147Z" fill="#89B439"/>
<path d="M747.453 310.302C769.646 310.257 791.467 310.257 813.731 310.257C813.731 304.539 813.731 299.043 813.731 293.221C815.696 293.221 817.226 293.221 819.046 293.221C819.046 326.347 819.046 359.495 819.046 393.062C817.548 393.146 815.999 393.233 813.989 393.346C813.989 387.428 813.989 381.814 813.989 375.851C791.247 375.851 768.945 375.851 746.419 375.851C746.419 367.713 746.419 359.936 746.419 351.719C761.697 351.719 776.824 351.719 792.201 351.719C792.201 345.795 792.201 340.306 792.201 334.472C777.049 334.472 761.927 334.472 745.801 334.472C746.241 326.186 746.662 318.266 747.453 310.302Z" fill="#89B439"/>
<path d="M706.176 297.784C706.176 316.481 706.271 334.791 706.146 353.099C706.045 367.875 695.263 378.183 681.443 377.007C670.141 376.046 661.158 366.948 660.955 355.077C660.609 334.875 660.87 314.663 660.894 294.456C660.894 294.083 661.118 293.71 661.307 293.12C676.037 293.12 690.762 293.12 705.977 293.12C706.044 294.54 706.11 295.968 706.176 297.784Z" fill="#24A966"/>
<path d="M280.416 300.902C280.416 304.111 280.416 306.926 280.416 310.299C268.989 310.299 257.946 310.299 246.501 310.299C246.501 338.197 246.501 365.536 246.501 393.082C240.58 393.082 235.079 393.082 229.256 393.082C229.256 365.504 229.256 338.147 229.256 310.414C218.017 310.414 207.091 310.414 195.814 310.414C195.814 304.455 195.814 298.865 195.814 293.102C223.899 293.102 251.906 293.102 280.416 293.102C280.416 295.707 280.416 298.107 280.416 300.902Z" fill="#89B439"/>
<path d="M521.867 347.739C517.834 349.15 514.08 351.229 510.226 351.435C500.661 351.947 491.049 351.603 481.199 351.603C481.199 337.967 481.199 324.486 481.199 310.728C481.991 310.577 482.871 310.265 483.753 310.262C492.154 310.224 500.56 310.058 508.955 310.279C524.306 310.683 534.159 323.688 529.292 337.573C527.991 341.284 524.556 344.248 521.867 347.739Z" fill="#1EA969"/>
<path d="M541.953 310.634C535.681 300.882 526.737 295.626 514.708 293.09C528.304 293.09 540.665 293.09 553.196 293.09C553.196 326.518 553.196 359.689 553.196 392.819C546.037 394.251 545.528 394.076 541.914 388.241C537.146 380.545 532.439 372.811 527.556 364.849C538.299 358.338 545.379 349.314 547.385 336.933C548.887 327.666 547.214 318.889 541.953 310.634Z" fill="#24A966"/>
<path d="M480.928 388.643C480.928 382.035 480.928 375.812 480.928 369.126C490.336 369.126 499.514 369.07 508.688 369.213C509.622 369.227 510.852 370.242 511.412 371.129C515.876 378.204 520.211 385.36 524.866 392.947C510.106 392.947 495.754 392.947 481.114 392.947C481.052 391.648 480.99 390.338 480.928 388.643Z" fill="#89B439"/>
<path d="M725.833 393.075C716.354 393.139 706.876 393.204 697.039 393.041C696.625 392.61 696.589 392.403 696.576 392.193C713.714 385.498 723.352 371.549 723.387 353.261C723.423 334.327 723.363 315.392 723.471 296.459C723.478 295.277 724.58 294.102 725.514 293.248C725.86 293.873 725.863 294.173 725.884 294.845C725.89 327.467 725.878 359.717 725.863 392.152C725.857 392.583 725.848 392.829 725.833 393.075Z" fill="#89B439"/>
<path d="M725.867 294.474C725.863 294.173 725.86 293.873 725.849 293.348C729.657 292.084 728.954 294.842 728.955 296.894C728.971 327.347 728.966 357.8 728.966 388.252C728.966 389.2 729.284 390.324 728.882 391.05C728.368 391.978 727.274 392.584 726.131 393.202C725.848 392.829 725.857 392.583 726.052 391.889C726.358 390.643 726.571 389.845 726.571 389.047C726.589 358.687 726.595 328.327 726.558 297.967C726.556 296.802 726.107 295.638 725.867 294.474Z" fill="#79B341"/>
<path d="M696.355 392.175C696.589 392.403 696.625 392.61 696.673 392.97C696.077 393.271 695.488 393.414 694.002 393.776C695.173 392.887 695.654 392.522 696.355 392.175Z" fill="#1EA969"/>
<path d="M725.884 294.845C726.107 295.638 726.556 296.802 726.558 297.967C726.595 328.327 726.589 358.687 726.571 389.047C726.571 389.845 726.358 390.643 726.055 391.704C725.878 359.717 725.89 327.467 725.884 294.845Z" fill="#1EA969"/>
<path d="M498.884 195.576C498.059 202.89 494.562 207.72 487.751 209.75C481.887 211.497 476.868 209.645 472.836 205.348C468.55 200.78 467.913 195.261 470.135 189.586C472.479 183.597 477.715 180.459 484.263 180.569C490.583 180.676 494.95 183.793 497.464 189.447C498.253 191.221 498.43 193.267 498.884 195.576Z" fill="#F5F5F5"/>
<path d="M579.238 187.032C584.572 180.863 591.042 178.931 597.207 181.449C603.214 183.902 606.933 189.918 606.517 196.51C606.116 202.87 601.536 208.349 594.994 209.921C589.106 211.336 584.043 209.475 580.25 204.918C575.713 199.468 575.505 193.459 579.238 187.032Z" fill="#F5F5F5"/>
<path d="M600.558 172.543C584.663 166.827 569.642 175.366 566.682 191.637C566.156 194.527 564.984 195.552 562.092 195.537C545.569 195.446 529.043 195.389 512.521 195.571C508.757 195.612 508.223 193.547 507.651 190.716C505.407 179.625 496.601 171.542 486.154 170.809C474.066 169.961 463.991 176.414 460.007 187.558C459.895 187.871 459.674 188.19 459.687 188.498C459.938 194.471 456.917 196.255 451.332 195.514C445.823 194.784 441.665 191.405 441.522 185.947C441.239 175.105 441.258 164.248 441.493 153.404C441.615 147.82 445.424 144.047 451.143 143.975C455.051 143.926 457.17 142.297 459.089 139.193C463.82 131.542 468.96 124.143 473.667 116.478C477.24 110.662 482.104 107.959 488.962 108C511.829 108.14 534.697 108.126 557.563 108.007C563.99 107.973 568.622 110.252 572.024 115.906C577.005 124.182 582.328 132.271 587.908 140.154C589.186 141.961 592.066 143.531 594.277 143.624C603.44 144.012 612.631 143.729 621.81 143.813C630.002 143.888 632.964 146.918 632.977 155.018C632.992 164.699 633.028 174.38 632.958 184.061C632.897 192.469 626.174 197.631 618.063 195.323C616.91 194.995 615.651 193.095 615.427 191.757C613.928 182.794 608.967 176.596 600.558 172.543Z" fill="#F5F5F5"/>
<path d="M361.474 156.063C367.722 155.987 373.562 155.823 379.392 156.003C382.595 156.102 383.727 155.073 383.786 151.766C383.922 144.196 386.101 142.945 393.037 146.02C401.857 149.931 410.756 153.689 419.387 157.984C421.463 159.016 423.968 161.954 423.893 163.925C423.764 167.336 420.211 167.48 417.237 167.45C411.117 167.388 404.996 167.431 398.259 167.431C398.259 170.15 398.418 172.282 398.224 174.381C397.877 178.127 395.387 179.86 392.011 178.394C381.789 173.955 371.606 169.414 361.524 164.667C356.84 162.461 356.827 159.546 361.474 156.063Z" fill="#F5F5F5"/>
<path d="M502.884 187.576C502.059 194.89 498.562 199.72 491.751 201.75C485.887 203.497 480.868 201.645 476.836 197.348C472.55 192.78 471.913 187.261 474.135 181.586C476.479 175.597 481.715 172.459 488.263 172.569C494.583 172.676 498.95 175.793 501.464 181.447C502.253 183.221 502.43 185.267 502.884 187.576Z" fill="#1DA868"/>
<path d="M583.238 179.032C588.572 172.863 595.042 170.931 601.207 173.449C607.214 175.902 610.933 181.918 610.517 188.51C610.116 194.87 605.536 200.349 598.994 201.921C593.106 203.336 588.043 201.475 584.25 196.918C579.713 191.468 579.505 185.459 583.238 179.032Z" fill="#1DA868"/>
<path d="M604.558 164.543C588.663 158.827 573.642 167.366 570.682 183.637C570.156 186.527 568.984 187.552 566.092 187.537C549.569 187.446 533.043 187.389 516.521 187.571C512.757 187.612 512.223 185.547 511.651 182.716C509.407 171.625 500.601 163.542 490.154 162.809C478.066 161.961 467.991 168.414 464.007 179.558C463.895 179.871 463.674 180.19 463.687 180.498C463.938 186.471 460.917 188.255 455.332 187.514C449.823 186.784 445.665 183.405 445.522 177.947C445.239 167.105 445.258 156.248 445.493 145.404C445.615 139.82 449.424 136.047 455.143 135.975C459.051 135.926 461.17 134.297 463.089 131.193C467.82 123.542 472.96 116.143 477.667 108.478C481.24 102.662 486.104 99.9588 492.962 100C515.829 100.14 538.697 100.126 561.563 100.007C567.99 99.9735 572.622 102.252 576.024 107.906C581.005 116.182 586.328 124.271 591.908 132.154C593.186 133.961 596.066 135.531 598.277 135.624C607.44 136.012 616.631 135.729 625.81 135.813C634.002 135.888 636.964 138.918 636.977 147.018C636.992 156.699 637.028 166.38 636.958 176.061C636.897 184.469 630.174 189.631 622.063 187.323C620.91 186.995 619.651 185.095 619.427 183.757C617.928 174.794 612.967 168.596 604.558 164.543Z" fill="url(#paint0_linear_2_2862)"/>
<path d="M365.474 148.063C371.722 147.987 377.562 147.823 383.392 148.003C386.595 148.102 387.727 147.073 387.786 143.766C387.922 136.196 390.101 134.945 397.037 138.02C405.857 141.931 414.756 145.689 423.387 149.984C425.463 151.016 427.968 153.954 427.893 155.925C427.764 159.336 424.211 159.48 421.237 159.45C415.117 159.388 408.996 159.431 402.259 159.431C402.259 162.15 402.418 164.282 402.224 166.381C401.877 170.127 399.387 171.86 396.011 170.394C385.789 165.955 375.606 161.414 365.524 156.667C360.84 154.461 360.827 151.546 365.474 148.063Z" fill="#89B439"/>
<defs>
<linearGradient id="paint0_linear_2_2862" x1="541.157" y1="100" x2="541.157" y2="187.875" gradientUnits="userSpaceOnUse">
<stop stop-color="#1DA868"/>
<stop offset="0.40625" stop-color="#1EA868"/>
<stop offset="1" stop-color="#89B439"/>
</linearGradient>
</defs>
</svg>
