<svg width="502" height="268" viewBox="0 0 502 268" fill="none" xmlns="http://www.w3.org/2000/svg">
<path d="M151.1 229.14C148.94 248.277 139.791 260.915 121.97 266.225C106.627 270.798 93.4953 265.95 82.9459 254.707C71.731 242.755 70.0652 228.317 75.8776 213.468C82.0113 197.798 95.7119 189.587 112.843 189.876C129.381 190.154 140.807 198.31 147.385 213.103C149.449 217.745 149.912 223.099 151.1 229.14Z" fill="#1DA868"/>
<path d="M361.338 206.785C375.293 190.645 392.222 185.589 408.353 192.177C424.069 198.596 433.8 214.337 432.712 231.583C431.663 248.225 419.68 262.56 402.563 266.673C387.156 270.376 373.909 265.505 363.985 253.582C352.115 239.323 351.57 223.601 361.338 206.785Z" fill="#1DA868"/>
<path d="M417.117 168.874C375.528 153.918 336.227 176.26 328.481 218.833C327.105 226.393 324.038 229.077 316.473 229.036C273.24 228.798 230.001 228.648 186.771 229.125C176.924 229.233 175.527 223.83 174.029 216.424C168.16 187.404 145.119 166.256 117.784 164.337C86.1562 162.117 59.7962 179.002 49.3709 208.16C49.0774 208.98 48.5002 209.813 48.5341 210.62C49.1911 226.246 41.2857 230.916 26.6734 228.978C12.2586 227.065 1.37993 218.224 1.00708 203.945C0.266636 175.578 0.316381 147.17 0.931736 118.798C1.24845 104.187 11.2169 94.3143 26.1799 94.1266C36.4034 93.9983 41.9483 89.7367 46.9691 81.6158C59.347 61.596 72.7954 42.2365 85.1133 22.1815C94.4596 6.96511 107.187 -0.107848 125.132 0.00124234C184.96 0.365062 244.793 0.328835 304.622 0.0180378C321.439 -0.0693766 333.557 5.89213 342.459 20.6851C355.491 42.3395 369.419 63.5029 384.018 84.1296C387.364 88.8562 394.899 92.965 400.682 93.2095C424.659 94.2229 448.704 93.4841 472.722 93.7032C494.155 93.8989 501.905 101.826 501.939 123.021C501.98 148.35 502.074 173.681 501.891 199.009C501.731 221.01 484.141 234.516 462.919 228.477C459.901 227.618 456.606 222.647 456.021 219.147C452.099 195.696 439.119 179.477 417.117 168.874Z" fill="url(#paint0_linear_7_22)"/>
<path d="M176.138 65.5205C189.621 71.6099 202.318 77.101 214.647 83.3202C221.422 86.7375 224.88 85.6637 228.316 78.626C236.183 62.5162 242.112 62.0122 253.918 75.5525C268.931 92.7715 284.267 109.74 298.492 127.592C301.912 131.885 304.348 140.696 302.215 144.852C298.525 152.041 290.757 148.796 284.406 145.756C271.334 139.498 258.154 133.466 243.698 126.725C240.978 132.557 239.186 137.292 236.668 141.603C232.177 149.294 225.098 150.522 219.322 143.998C201.828 124.242 184.52 104.31 167.636 84.033C159.791 74.6125 162.679 68.3433 176.138 65.5205Z" fill="url(#paint1_linear_7_22)"/>
<defs>
<linearGradient id="paint0_linear_7_22" x1="251.23" y1="0" x2="251.23" y2="229.92" gradientUnits="userSpaceOnUse">
<stop stop-color="#1DA868"/>
<stop offset="0.40625" stop-color="#1EA868"/>
<stop offset="1" stop-color="#89B439"/>
</linearGradient>
<linearGradient id="paint1_linear_7_22" x1="109.574" y1="37.8808" x2="321.488" y2="177.578" gradientUnits="userSpaceOnUse">
<stop stop-color="#F3D55F"/>
<stop offset="1" stop-color="white"/>
</linearGradient>
</defs>
</svg>
