<svg width="805" height="417" viewBox="0 0 805 417" fill="none" xmlns="http://www.w3.org/2000/svg">
<path d="M799.988 389.829C799.988 397.833 800.037 405.429 799.936 413.024C799.92 414.189 799.21 415.344 798.821 416.504C798.318 416.385 797.814 416.265 797.31 416.145C797.31 410.531 797.31 404.917 797.31 398.903C774.609 398.903 752.312 398.903 729.787 398.903C729.787 371.156 729.787 343.816 729.787 316.179C752.996 316.179 776.228 316.179 799.988 316.179C799.988 340.664 799.988 365.043 799.988 389.829Z" fill="#F2F2F2"/>
<path d="M473.963 374.754C486.01 374.754 497.655 374.754 509.527 374.754C509.527 368.93 509.527 363.411 509.527 357.404C494.411 357.404 479.181 357.404 463.724 357.404C463.724 349.248 463.724 341.574 463.724 333.41C486.039 333.41 508.345 333.41 531.211 333.41C531.211 327.34 531.211 321.732 531.211 316C533.229 316 534.683 316 536.623 316C536.623 317.608 536.623 319.057 536.623 320.506C536.623 338.681 536.633 356.855 536.62 375.03C536.61 389.302 541.544 401.248 553.368 409.722C556.811 412.189 560.771 413.936 564.635 416.091C531.116 416.091 497.608 416.091 463.794 416.091C463.794 402.443 463.794 388.859 463.794 374.754C467.12 374.754 470.341 374.754 473.963 374.754Z" fill="#F2F2F2"/>
<path d="M45.7379 416.303C30.3107 416.303 15.2906 416.303 0 416.303C0 382.759 0 349.61 0 316.17C28.1254 316.17 56.2273 316.17 84.5728 316.17C84.5728 321.725 84.5728 327.224 84.5728 333.142C62.2835 333.142 39.9724 333.142 17.3893 333.142C17.3893 341.327 17.3893 349.1 17.3893 357.26C32.6187 357.26 47.7361 357.26 63.0523 357.26C63.0523 363.15 63.0523 368.659 63.0523 374.644C47.8361 374.644 32.7302 374.644 17.3723 374.644C17.3723 382.792 17.3723 390.474 17.3723 398.663C39.6509 398.663 62.0533 398.663 84.6326 398.663C84.6326 404.679 84.6326 410.193 84.6326 416.303C71.7897 416.303 58.9673 416.303 45.7379 416.303Z" fill="#F2F2F2"/>
<path d="M266.351 362.965C266.351 380.964 266.351 398.556 266.351 416.198C260.446 416.198 254.958 416.198 249.117 416.198C249.117 402.353 249.117 388.838 249.117 375.055C232.308 375.055 215.857 375.055 199.001 375.055C199.001 388.79 199.001 402.297 199.001 416.049C193.103 416.049 187.608 416.049 181.899 416.049C181.899 382.754 181.899 349.589 181.899 316.153C187.425 316.153 192.903 316.153 198.781 316.153C198.781 329.707 198.781 343.196 198.781 356.974C215.638 356.974 232.103 356.974 248.955 356.974C248.955 343.521 248.955 330.018 248.955 316.155C254.803 316.155 260.281 316.155 266.351 316.155C266.351 331.494 266.351 347.026 266.351 362.965Z" fill="#F2F2F2"/>
<path d="M351.147 402.147C351.752 398.491 349.585 398.767 347.467 398.77C327.807 398.795 308.147 398.785 288.488 398.785C287.005 398.785 285.522 398.785 283.743 398.785C283.743 390.85 283.743 383.063 283.743 374.754C285.53 374.754 287.387 374.754 289.244 374.754C301.583 374.754 313.921 374.696 326.259 374.799C328.857 374.82 329.891 374.097 329.767 371.355C329.565 366.898 329.713 362.424 329.713 357.47C314.341 357.47 299.124 357.47 283.678 357.47C283.678 349.205 283.678 341.428 283.678 333.219C306.117 333.219 328.42 333.219 351.164 333.219C351.164 327.311 351.164 321.82 351.164 316.114C353.16 316.114 354.711 316.114 356.489 316.114C356.489 349.388 356.489 382.558 356.489 416.065C354.86 416.065 353.194 416.065 351.147 416.065C351.147 411.424 351.147 406.983 351.147 402.147Z" fill="#F2F2F2"/>
<path d="M640.453 333.302C662.646 333.257 684.467 333.257 706.731 333.257C706.731 327.539 706.731 322.043 706.731 316.221C708.696 316.221 710.226 316.221 712.046 316.221C712.046 349.347 712.046 382.495 712.046 416.062C710.548 416.146 708.999 416.233 706.989 416.346C706.989 410.428 706.989 404.814 706.989 398.851C684.247 398.851 661.945 398.851 639.419 398.851C639.419 390.713 639.419 382.936 639.419 374.719C654.697 374.719 669.824 374.719 685.201 374.719C685.201 368.795 685.201 363.306 685.201 357.472C670.049 357.472 654.927 357.472 638.801 357.472C639.241 349.186 639.662 341.266 640.453 333.302Z" fill="#F2F2F2"/>
<path d="M599.176 320.784C599.176 339.481 599.271 357.791 599.146 376.099C599.044 390.875 588.262 401.183 574.443 400.007C563.141 399.046 554.158 389.948 553.955 378.077C553.609 357.875 553.87 337.663 553.894 317.456C553.894 317.083 554.118 316.71 554.307 316.12C569.036 316.12 583.762 316.12 598.977 316.12C599.043 317.54 599.11 318.968 599.176 320.784Z" fill="#F2F2F2"/>
<path d="M173.416 323.902C173.416 327.111 173.416 329.926 173.416 333.299C161.989 333.299 150.946 333.299 139.501 333.299C139.501 361.197 139.501 388.536 139.501 416.082C133.58 416.082 128.079 416.082 122.256 416.082C122.256 388.504 122.256 361.147 122.256 333.414C111.017 333.414 100.091 333.414 88.8145 333.414C88.8145 327.455 88.8145 321.865 88.8145 316.102C116.899 316.102 144.906 316.102 173.416 316.102C173.416 318.707 173.416 321.108 173.416 323.902Z" fill="#F2F2F2"/>
<path d="M414.867 370.739C410.834 372.15 407.08 374.229 403.226 374.435C393.661 374.947 384.049 374.603 374.199 374.603C374.199 360.967 374.199 347.486 374.199 333.728C374.991 333.576 375.871 333.265 376.753 333.261C385.154 333.224 393.56 333.058 401.955 333.279C417.306 333.682 427.159 346.688 422.292 360.573C420.991 364.284 417.556 367.247 414.867 370.739Z" fill="#F2F2F2"/>
<path d="M434.953 333.634C428.681 323.882 419.736 318.626 407.708 316.09C421.304 316.09 433.665 316.09 446.196 316.09C446.196 349.518 446.196 382.689 446.196 415.819C439.036 417.251 438.528 417.076 434.914 411.241C430.145 403.545 425.439 395.811 420.556 387.848C431.299 381.338 438.379 372.314 440.385 359.933C441.887 350.666 440.214 341.889 434.953 333.634Z" fill="#F2F2F2"/>
<path d="M373.928 411.643C373.928 405.035 373.928 398.812 373.928 392.126C383.336 392.126 392.514 392.07 401.688 392.213C402.622 392.227 403.852 393.242 404.412 394.129C408.876 401.204 413.211 408.36 417.866 415.947C403.106 415.947 388.754 415.947 374.114 415.947C374.052 414.648 373.99 413.338 373.928 411.643Z" fill="#F2F2F2"/>
<path d="M618.833 416.075C609.354 416.139 599.876 416.204 590.039 416.041C589.625 415.61 589.589 415.403 589.576 415.193C606.714 408.498 616.352 394.549 616.387 376.261C616.423 357.327 616.363 338.392 616.471 319.459C616.478 318.277 617.58 317.102 618.514 316.248C618.86 316.873 618.863 317.173 618.884 317.845C618.89 350.467 618.878 382.717 618.863 415.152C618.857 415.583 618.848 415.829 618.833 416.075Z" fill="#F2F2F2"/>
<path d="M618.867 317.474C618.863 317.173 618.86 316.873 618.849 316.348C622.657 315.084 621.954 317.842 621.955 319.894C621.971 350.347 621.966 380.8 621.966 411.252C621.966 412.2 622.284 413.324 621.882 414.05C621.368 414.978 620.274 415.584 619.131 416.202C618.848 415.829 618.857 415.583 619.052 414.889C619.358 413.643 619.571 412.845 619.571 412.047C619.589 381.687 619.595 351.327 619.558 320.967C619.556 319.802 619.107 318.638 618.867 317.474Z" fill="#F2F2F2"/>
<path d="M589.355 415.175C589.589 415.403 589.625 415.61 589.673 415.97C589.077 416.271 588.488 416.414 587.002 416.776C588.173 415.887 588.654 415.522 589.355 415.175Z" fill="#F2F2F2"/>
<path d="M618.884 317.845C619.107 318.638 619.556 319.802 619.558 320.967C619.595 351.327 619.589 381.687 619.571 412.047C619.571 412.845 619.358 413.643 619.055 414.704C618.878 382.717 618.89 350.467 618.884 317.845Z" fill="#F2F2F2"/>
<path d="M804.988 383.829C804.988 391.833 805.037 399.429 804.936 407.024C804.92 408.189 804.21 409.344 803.821 410.504C803.318 410.385 802.814 410.265 802.31 410.145C802.31 404.531 802.31 398.917 802.31 392.903C779.609 392.903 757.312 392.903 734.787 392.903C734.787 365.156 734.787 337.816 734.787 310.179C757.996 310.179 781.228 310.179 804.988 310.179C804.988 334.664 804.988 359.043 804.988 383.829Z" fill="#1DA868"/>
<path d="M478.963 368.754C491.01 368.754 502.655 368.754 514.527 368.754C514.527 362.93 514.527 357.411 514.527 351.404C499.411 351.404 484.181 351.404 468.724 351.404C468.724 343.248 468.724 335.574 468.724 327.41C491.039 327.41 513.345 327.41 536.211 327.41C536.211 321.34 536.211 315.732 536.211 310C538.229 310 539.683 310 541.623 310C541.623 311.608 541.623 313.057 541.623 314.506C541.623 332.681 541.633 350.855 541.62 369.03C541.61 383.302 546.544 395.248 558.368 403.722C561.811 406.189 565.771 407.936 569.635 410.091C536.116 410.091 502.608 410.091 468.794 410.091C468.794 396.443 468.794 382.859 468.794 368.754C472.12 368.754 475.341 368.754 478.963 368.754Z" fill="#89B439"/>
<path d="M50.7379 410.303C35.3107 410.303 20.2906 410.303 5 410.303C5 376.759 5 343.61 5 310.17C33.1254 310.17 61.2273 310.17 89.5728 310.17C89.5728 315.725 89.5728 321.224 89.5728 327.142C67.2835 327.142 44.9724 327.142 22.3893 327.142C22.3893 335.327 22.3893 343.1 22.3893 351.26C37.6187 351.26 52.7361 351.26 68.0523 351.26C68.0523 357.15 68.0523 362.659 68.0523 368.644C52.8361 368.644 37.7302 368.644 22.3723 368.644C22.3723 376.792 22.3723 384.474 22.3723 392.663C44.6509 392.663 67.0533 392.663 89.6326 392.663C89.6326 398.679 89.6326 404.193 89.6326 410.303C76.7897 410.303 63.9673 410.303 50.7379 410.303Z" fill="#1EA969"/>
<path d="M271.351 356.965C271.351 374.964 271.351 392.556 271.351 410.198C265.446 410.198 259.958 410.198 254.117 410.198C254.117 396.353 254.117 382.838 254.117 369.055C237.308 369.055 220.857 369.055 204.001 369.055C204.001 382.79 204.001 396.297 204.001 410.049C198.103 410.049 192.608 410.049 186.899 410.049C186.899 376.754 186.899 343.589 186.899 310.153C192.425 310.153 197.903 310.153 203.781 310.153C203.781 323.707 203.781 337.196 203.781 350.974C220.638 350.974 237.103 350.974 253.955 350.974C253.955 337.521 253.955 324.018 253.955 310.155C259.803 310.155 265.281 310.155 271.351 310.155C271.351 325.494 271.351 341.026 271.351 356.965Z" fill="#1EA969"/>
<path d="M356.147 396.147C356.752 392.491 354.585 392.767 352.467 392.77C332.807 392.795 313.147 392.785 293.488 392.785C292.005 392.785 290.522 392.785 288.743 392.785C288.743 384.85 288.743 377.063 288.743 368.754C290.53 368.754 292.387 368.754 294.244 368.754C306.583 368.754 318.921 368.696 331.259 368.799C333.857 368.82 334.891 368.097 334.767 365.355C334.565 360.898 334.713 356.424 334.713 351.47C319.341 351.47 304.124 351.47 288.678 351.47C288.678 343.205 288.678 335.428 288.678 327.219C311.117 327.219 333.42 327.219 356.164 327.219C356.164 321.311 356.164 315.82 356.164 310.114C358.16 310.114 359.711 310.114 361.489 310.114C361.489 343.388 361.489 376.558 361.489 410.065C359.86 410.065 358.194 410.065 356.147 410.065C356.147 405.424 356.147 400.983 356.147 396.147Z" fill="#89B439"/>
<path d="M645.453 327.302C667.646 327.257 689.467 327.257 711.731 327.257C711.731 321.539 711.731 316.043 711.731 310.221C713.696 310.221 715.226 310.221 717.046 310.221C717.046 343.347 717.046 376.495 717.046 410.062C715.548 410.146 713.999 410.233 711.989 410.346C711.989 404.428 711.989 398.814 711.989 392.851C689.247 392.851 666.945 392.851 644.419 392.851C644.419 384.713 644.419 376.936 644.419 368.719C659.697 368.719 674.824 368.719 690.201 368.719C690.201 362.795 690.201 357.306 690.201 351.472C675.049 351.472 659.927 351.472 643.801 351.472C644.241 343.186 644.662 335.266 645.453 327.302Z" fill="#89B439"/>
<path d="M604.176 314.784C604.176 333.481 604.271 351.791 604.146 370.099C604.044 384.875 593.262 395.183 579.443 394.007C568.141 393.046 559.158 383.948 558.955 372.077C558.609 351.875 558.87 331.663 558.894 311.456C558.894 311.083 559.118 310.71 559.307 310.12C574.036 310.12 588.762 310.12 603.977 310.12C604.043 311.54 604.11 312.968 604.176 314.784Z" fill="#24A966"/>
<path d="M178.416 317.902C178.416 321.111 178.416 323.926 178.416 327.299C166.989 327.299 155.946 327.299 144.501 327.299C144.501 355.197 144.501 382.536 144.501 410.082C138.58 410.082 133.079 410.082 127.256 410.082C127.256 382.504 127.256 355.147 127.256 327.414C116.017 327.414 105.091 327.414 93.8145 327.414C93.8145 321.455 93.8145 315.865 93.8145 310.102C121.899 310.102 149.906 310.102 178.416 310.102C178.416 312.707 178.416 315.108 178.416 317.902Z" fill="#89B439"/>
<path d="M419.867 364.739C415.834 366.15 412.08 368.229 408.226 368.435C398.661 368.947 389.049 368.603 379.199 368.603C379.199 354.967 379.199 341.486 379.199 327.728C379.991 327.576 380.871 327.265 381.753 327.261C390.154 327.224 398.56 327.058 406.955 327.279C422.306 327.682 432.159 340.688 427.292 354.573C425.991 358.284 422.556 361.247 419.867 364.739Z" fill="#1EA969"/>
<path d="M439.953 327.634C433.681 317.882 424.736 312.626 412.708 310.09C426.304 310.09 438.665 310.09 451.196 310.09C451.196 343.518 451.196 376.689 451.196 409.819C444.036 411.251 443.528 411.076 439.914 405.241C435.145 397.545 430.439 389.811 425.556 381.848C436.299 375.338 443.379 366.314 445.385 353.933C446.887 344.666 445.214 335.889 439.953 327.634Z" fill="#24A966"/>
<path d="M378.928 405.643C378.928 399.035 378.928 392.812 378.928 386.126C388.336 386.126 397.514 386.07 406.688 386.213C407.622 386.227 408.852 387.242 409.412 388.129C413.876 395.204 418.211 402.36 422.866 409.947C408.106 409.947 393.754 409.947 379.114 409.947C379.052 408.648 378.99 407.338 378.928 405.643Z" fill="#89B439"/>
<path d="M623.833 410.075C614.354 410.139 604.876 410.204 595.039 410.041C594.625 409.61 594.589 409.403 594.576 409.193C611.714 402.498 621.352 388.549 621.387 370.261C621.423 351.327 621.363 332.392 621.471 313.459C621.478 312.277 622.58 311.102 623.514 310.248C623.86 310.873 623.863 311.173 623.884 311.845C623.89 344.467 623.878 376.717 623.863 409.152C623.857 409.583 623.848 409.829 623.833 410.075Z" fill="#89B439"/>
<path d="M623.867 311.474C623.863 311.173 623.86 310.873 623.849 310.348C627.657 309.084 626.954 311.842 626.955 313.894C626.971 344.347 626.966 374.8 626.966 405.252C626.966 406.2 627.284 407.324 626.882 408.05C626.368 408.978 625.274 409.584 624.131 410.202C623.848 409.829 623.857 409.583 624.052 408.889C624.358 407.643 624.571 406.845 624.571 406.047C624.589 375.687 624.595 345.327 624.558 314.967C624.556 313.802 624.107 312.638 623.867 311.474Z" fill="#79B341"/>
<path d="M594.355 409.175C594.589 409.403 594.625 409.61 594.673 409.97C594.077 410.271 593.488 410.414 592.002 410.776C593.173 409.887 593.654 409.522 594.355 409.175Z" fill="#1EA969"/>
<path d="M623.884 311.845C624.107 312.638 624.556 313.802 624.558 314.967C624.595 345.327 624.589 375.687 624.571 406.047C624.571 406.845 624.358 407.643 624.055 408.704C623.878 376.717 623.89 344.467 623.884 311.845Z" fill="#1EA969"/>
<path d="M283.629 236.072C281.469 255.21 272.32 267.847 254.5 273.158C239.157 277.73 226.025 272.882 215.475 261.64C204.261 249.688 202.595 235.249 208.407 220.401C214.541 204.73 228.241 196.519 245.373 196.808C261.911 197.087 273.336 205.243 279.915 220.036C281.979 224.678 282.441 230.032 283.629 236.072Z" fill="#FDFAEB"/>
<path d="M493.87 213.718C507.825 197.579 524.755 192.522 540.885 199.11C556.602 205.529 566.332 221.27 565.244 238.516C564.195 255.158 552.212 269.493 535.095 273.607C519.688 277.309 506.441 272.438 496.517 260.515C484.647 246.256 484.102 230.534 493.87 213.718Z" fill="#FDFAEB"/>
<path d="M549.656 175.807C508.067 160.851 468.766 183.193 461.02 225.765C459.644 233.326 456.577 236.01 449.012 235.968C405.779 235.73 362.54 235.581 319.31 236.057C309.463 236.166 308.066 230.763 306.568 223.356C300.699 194.336 277.658 173.189 250.323 171.27C218.695 169.05 192.335 185.935 181.91 215.092C181.616 215.913 181.039 216.746 181.073 217.553C181.73 233.179 173.825 237.849 159.212 235.91C144.798 233.998 133.919 225.157 133.546 210.877C132.806 182.511 132.855 154.102 133.471 125.73C133.788 111.12 143.756 101.247 158.719 101.059C168.942 100.931 174.487 96.6693 179.508 88.5484C191.886 68.5286 205.334 49.1691 217.652 29.1142C226.999 13.8977 239.726 6.82477 257.671 6.93386C317.499 7.29768 377.332 7.26145 437.161 6.95065C453.978 6.86324 466.096 12.8247 474.999 27.6178C488.03 49.2721 501.958 70.4355 516.557 91.0622C519.903 95.7889 527.438 99.8977 533.221 100.142C557.198 101.156 581.243 100.417 605.261 100.636C626.695 100.831 634.444 108.759 634.478 129.953C634.519 155.283 634.613 180.614 634.43 205.942C634.271 227.943 616.68 241.448 595.458 235.409C592.44 234.551 589.146 229.579 588.56 226.08C584.638 202.628 571.658 186.41 549.656 175.807Z" fill="#FDFAEB"/>
<path d="M289.1 229.14C286.94 248.277 277.791 260.915 259.97 266.225C244.627 270.798 231.495 265.95 220.946 254.707C209.731 242.755 208.065 228.317 213.878 213.468C220.011 197.798 233.712 189.587 250.843 189.876C267.381 190.154 278.807 198.31 285.385 213.103C287.449 217.745 287.912 223.099 289.1 229.14Z" fill="#1DA868"/>
<path d="M499.338 206.785C513.293 190.645 530.222 185.589 546.353 192.177C562.069 198.596 571.8 214.337 570.712 231.583C569.663 248.225 557.68 262.56 540.563 266.673C525.156 270.376 511.909 265.505 501.985 253.582C490.115 239.323 489.57 223.601 499.338 206.785Z" fill="#1DA868"/>
<path d="M555.117 168.874C513.528 153.918 474.227 176.26 466.481 218.833C465.105 226.393 462.038 229.077 454.473 229.036C411.24 228.798 368.001 228.648 324.771 229.125C314.924 229.233 313.527 223.83 312.029 216.424C306.16 187.404 283.119 166.256 255.784 164.337C224.156 162.117 197.796 179.002 187.371 208.16C187.077 208.98 186.5 209.813 186.534 210.62C187.191 226.246 179.286 230.916 164.673 228.978C150.259 227.065 139.38 218.224 139.007 203.945C138.267 175.578 138.316 147.17 138.932 118.798C139.248 104.187 149.217 94.3143 164.18 94.1266C174.403 93.9983 179.948 89.7367 184.969 81.6158C197.347 61.596 210.795 42.2365 223.113 22.1815C232.46 6.96511 245.187 -0.107848 263.132 0.00124234C322.96 0.365062 382.793 0.328835 442.622 0.0180378C459.439 -0.0693766 471.557 5.89213 480.459 20.6851C493.491 42.3395 507.419 63.5029 522.018 84.1296C525.364 88.8562 532.899 92.965 538.682 93.2095C562.659 94.2229 586.704 93.4841 610.722 93.7032C632.155 93.8989 639.905 101.826 639.939 123.021C639.98 148.35 640.074 173.681 639.891 199.009C639.731 221.01 622.141 234.516 600.919 228.477C597.901 227.618 594.606 222.647 594.021 219.147C590.099 195.696 577.119 179.477 555.117 168.874Z" fill="url(#paint0_linear_6_3)"/>
<path d="M314.138 65.5205C327.621 71.6099 340.318 77.101 352.647 83.3202C359.422 86.7375 362.88 85.6637 366.316 78.626C374.183 62.5162 380.112 62.0122 391.918 75.5525C406.931 92.7715 422.267 109.74 436.492 127.592C439.912 131.885 442.348 140.696 440.215 144.852C436.525 152.041 428.757 148.796 422.406 145.756C409.334 139.498 396.154 133.466 381.698 126.725C378.978 132.557 377.186 137.292 374.668 141.603C370.177 149.294 363.098 150.522 357.322 143.998C339.828 124.242 322.52 104.31 305.636 84.033C297.791 74.6125 300.679 68.3433 314.138 65.5205Z" fill="url(#paint1_linear_6_3)"/>
<defs>
<linearGradient id="paint0_linear_6_3" x1="389.23" y1="0" x2="389.23" y2="229.92" gradientUnits="userSpaceOnUse">
<stop stop-color="#1DA868"/>
<stop offset="0.40625" stop-color="#1EA868"/>
<stop offset="1" stop-color="#89B439"/>
</linearGradient>
<linearGradient id="paint1_linear_6_3" x1="247.574" y1="37.8808" x2="459.488" y2="177.578" gradientUnits="userSpaceOnUse">
<stop stop-color="#F3D55F"/>
<stop offset="1" stop-color="white"/>
</linearGradient>
</defs>
</svg>
