<svg width="300" height="183" viewBox="0 0 300 183" fill="none" xmlns="http://www.w3.org/2000/svg">
<path d="M71.0804 47.855H127.664V52.3748H76.2685V86.3883H124.598V90.908H76.2685V128.252H128.253V132.772H71.0804V47.855ZM132.732 47.855H138.745L165.386 85.1987L192.616 47.855L229.654 0.420731L168.805 89.1238L200.161 132.772H193.912L165.386 93.0488L136.742 132.772H130.611L162.203 89.1238L132.732 47.855ZM202.401 52.3748V47.855H266.88V52.3748H237.176V132.769H231.988V52.3748H202.401ZM0.293945 47.855H6.77802L96.1798 182.294L59.2336 132.772L5.71562 54.2772L5.47998 132.772H0.293945V47.855ZM266.36 126.887C265.298 126.887 264.504 126.062 264.504 124.997C264.504 123.93 265.298 123.105 266.358 123.105C267.431 123.105 268.213 123.93 268.213 124.997C268.213 126.062 267.431 126.887 266.358 126.887H266.36ZM271.455 121.911H274.232C274.27 123.422 275.369 124.437 276.982 124.437C278.786 124.437 279.808 123.347 279.808 121.302V108.356H282.633V121.314C282.633 124.997 280.515 127.117 277.007 127.117C273.716 127.117 271.457 125.06 271.457 121.911H271.455ZM286.328 121.748H289.13C289.369 123.486 291.059 124.589 293.495 124.589C295.764 124.589 297.43 123.408 297.43 121.785C297.43 120.389 296.371 119.55 293.96 118.98L291.614 118.41C288.323 117.636 286.82 116.035 286.82 113.344C286.82 110.081 289.469 107.91 293.442 107.91C297.139 107.91 299.841 110.081 300.003 113.165H297.253C296.989 111.478 295.526 110.423 293.406 110.423C291.171 110.423 289.684 111.503 289.684 113.153C289.684 114.46 290.643 115.21 293.016 115.768L295.021 116.263C298.754 117.139 300.294 118.662 300.294 121.416C300.294 124.919 297.592 127.117 293.28 127.117C289.243 127.117 286.53 125.023 286.328 121.748Z" fill="black"/>
</svg>
