<svg width="300" height="300" viewBox="0 0 300 300" fill="none" xmlns="http://www.w3.org/2000/svg">
<mask id="mask0_22_20" style="mask-type:luminance" maskUnits="userSpaceOnUse" x="0" y="0" width="300" height="300">
<path d="M300 0H0V300H300V0Z" fill="white"/>
</mask>
<g mask="url(#mask0_22_20)">
<path d="M224.369 100.294C221.58 98.7349 218.438 97.9165 215.243 97.9165C212.048 97.9165 208.906 98.7349 206.117 100.294L164.242 124.582L135.79 140.422L93.9173 164.71C91.1278 166.267 87.9862 167.085 84.7913 167.085C81.5965 167.085 78.4548 166.267 75.6653 164.71L42.3797 145.702C39.6715 144.149 37.4095 141.924 35.812 139.242C34.2144 136.559 33.3354 133.511 33.2597 130.39V92.9017C33.2223 89.7571 34.054 86.6632 35.6633 83.9613C37.2726 81.2594 39.5968 79.0545 42.3797 77.5897L75.1277 59.1097C77.9172 57.5522 81.0589 56.7346 84.2537 56.7346C87.4486 56.7346 90.5902 57.5522 93.3797 59.1097L126.128 77.5897C128.836 79.1427 131.098 81.3677 132.695 84.0499C134.293 86.732 135.172 89.7808 135.248 92.9017V117.19L163.7 100.822V76.5337C163.737 73.3891 162.905 70.2952 161.296 67.5933C159.687 64.8914 157.363 62.6865 154.58 61.2217L93.9173 26.3761C91.1278 24.8186 87.9862 24.001 84.7913 24.001C81.5965 24.001 78.4548 24.8186 75.6653 26.3761L13.9205 61.2241C11.138 62.6887 8.81399 64.8933 7.20473 67.5947C5.59547 70.2961 4.76349 73.3895 4.80053 76.5337V146.758C4.76305 149.902 5.59482 152.996 7.2041 155.698C8.81338 158.4 11.1376 160.605 13.9205 162.07L75.6581 196.918C78.4476 198.475 81.5893 199.293 84.7841 199.293C87.979 199.293 91.1206 198.475 93.9101 196.918L135.783 173.158L164.235 156.79L206.11 133.03C208.899 131.471 212.041 130.652 215.236 130.652C218.431 130.652 221.573 131.471 224.362 133.03L257.11 151.51C259.818 153.063 262.08 155.288 263.678 157.97C265.275 160.652 266.154 163.701 266.23 166.822V204.31C266.268 207.454 265.436 210.548 263.827 213.25C262.217 215.952 259.893 218.157 257.11 219.622L224.362 238.63C221.573 240.187 218.431 241.005 215.236 241.005C212.041 241.005 208.9 240.187 206.11 238.63L173.362 220.15C170.654 218.597 168.392 216.372 166.795 213.689C165.197 211.007 164.318 207.959 164.242 204.838V180.547L135.79 196.915V221.203C135.753 224.348 136.584 227.442 138.194 230.144C139.803 232.846 142.127 235.051 144.91 236.515L206.648 271.363C209.437 272.921 212.579 273.738 215.774 273.738C218.969 273.738 222.11 272.921 224.9 271.363L286.637 236.515C289.345 234.962 291.607 232.737 293.205 230.055C294.802 227.373 295.681 224.324 295.757 221.203V150.982C295.795 147.837 294.963 144.743 293.354 142.041C291.744 139.339 289.42 137.135 286.637 135.67L224.369 100.294Z" fill="#8247E5"/>
</g>
</svg>
